<?xml version="1.0" encoding="utf-8" ?><svg xmlns="http://www.w3.org/2000/svg" xmlns:xlink="http://www.w3.org/1999/xlink" width="740" height="151" viewBox="0 0 740 151"><path fill="#9D3AEA" d="M454.188 40.9831L489.832 40.8662C495.695 40.8132 513.766 39.8685 517.807 41.2246C518.452 43.3304 518.115 57.5992 518.079 60.957C514.143 65.8663 509.812 70.7181 505.754 75.5561C495.373 87.9853 484.907 100.342 474.355 112.626C470.468 117.172 465.771 122.212 462.121 126.708C466.326 125.722 473.994 126.002 478.54 125.992L501.136 125.955C505.305 125.949 515.611 125.637 519.357 125.96C519.787 132.409 519.642 141.535 519.55 148.099C499.696 147.898 479.84 147.875 459.986 148.03C449.342 148.059 438.07 147.693 427.489 148.069C426.874 143.88 427.056 138.148 426.982 133.742C429.643 129.574 439.468 118.705 443.218 114.305L473.305 79.0622C477.709 73.9609 482.761 68.6698 486.951 63.573C479.013 64.3756 466.679 63.9822 458.337 63.9481L438.72 63.9751C436.83 63.9851 434.806 63.9097 432.905 63.8734C432.834 60.3628 432.806 57.1984 432.914 53.685C432.882 51.0167 432.476 43.6981 433.595 41.5663C435.633 40.5335 450.958 40.9674 454.188 40.9831Z"/><path fill="#9D3AEA" d="M454.188 40.9831L489.832 40.8662C495.695 40.8132 513.766 39.8685 517.807 41.2246C515.816 41.3025 513.239 41.6487 511.207 41.8758C497.874 43.3654 484.35 42.5014 470.98 42.402L434.676 42.7402C434.568 44.6758 434.496 46.9745 434.187 48.8501C433.895 47.4518 433.846 45.5932 433.763 44.1354C433.689 46.3471 433.595 51.8349 432.914 53.685C432.882 51.0167 432.476 43.6981 433.595 41.5663C435.633 40.5335 450.958 40.9674 454.188 40.9831Z"/><path fill="#9D3AEA" d="M160.841 56.6242C161.45 55.8576 162.096 55.1217 162.778 54.4193C174.093 42.6171 183.771 42.0452 198.918 41.7141C199.354 47.3674 199.136 60.1534 198.912 65.9548C188.153 65.6365 178.265 65.6041 169.709 73.1657C158.247 83.229 159.467 96.0642 159.189 109.597C158.932 122.101 159.882 135.637 159.157 147.93C152.281 148.336 142.208 148.018 135.091 147.984C134.486 143.806 134.695 135.454 134.701 131.051L134.747 102.047L134.726 65.5077C134.723 58.782 134.433 49.3813 135.247 42.9767C142.756 42.5783 151.474 42.6817 159.012 42.7811L159.082 54.3205C159.023 55.6194 158.791 57.4686 159.331 58.5878C160.174 58.2325 160.291 57.5924 160.841 56.6242Z"/><path fill="#9F15E9" fill-opacity="0.011764706" d="M159.082 54.3205L159.624 56.259L160.005 55.1685L160.504 55.4187C160.572 55.6887 160.736 56.4168 160.841 56.6242C160.291 57.5924 160.174 58.2325 159.331 58.5878C158.791 57.4686 159.023 55.6194 159.082 54.3205Z"/><path fill="#9D3AEA" d="M292.79 87.234C289.9 84.0421 287.492 78.2533 284.079 74.4503C278.754 68.2452 273.082 65.4635 264.994 64.6088C247.943 63.0031 235.003 75.778 233.145 92.3353C231.103 110.534 242.516 127.505 261.534 128.99C279.136 130.365 287.087 118.731 295.798 105.625C300.473 98.5905 306.214 91.1238 310.921 84.0152C317.591 74.4864 323.593 63.7248 332.368 56.0154C344.656 45.2603 359.274 40.6329 375.421 41.9056C389.609 43.0238 404.246 50.8708 413.336 61.757C423.802 74.2915 426.056 88.6098 424.868 104.251C424.02 112.419 421.519 120 416.857 126.821C412.638 135.282 401.761 143.387 393.095 147.04C391.761 147.499 389.863 148.219 388.555 148.595C387.14 148.989 379.879 150.724 379.277 151L364.087 151C360.178 149.847 356.327 149.128 352.474 147.715C337.359 142.171 327.352 131.936 320.462 117.829C324.866 114.602 335.138 109.085 340.312 106.416C348.847 118.496 354.482 128.697 371.239 129.129C399.337 129.854 410.714 93.1424 392.496 74.5105C383.745 64.0986 366.837 62.1798 354.921 67.6286C345.535 71.9017 336.998 84.8327 330.995 93.2634L313.657 117.918C307.745 126.398 301.936 135.543 293.292 141.535C288.031 145.174 282.185 147.886 276.008 149.551C274.302 150.022 271.142 150.462 269.842 151L258.057 151C257.17 150.717 255.394 150.295 254.49 150.144C220.827 144.542 200.691 109.225 212.304 76.9025C217.061 63.5425 226.916 52.6092 239.714 46.493C252.242 40.6152 266.969 40.5046 280.097 44.8428C294.506 49.6045 306.488 63.6016 312.889 77.2461C307.009 80.4234 297.853 84.0071 292.79 87.234Z"/><path fill="#9D3AEA" d="M416.857 126.821C416.785 126.603 416.566 125.763 416.655 125.591C420.04 119.07 421.765 111.96 424.02 104.993C424.02 104.992 424.819 104.294 424.868 104.251C424.02 112.419 421.519 120 416.857 126.821Z"/><path fill="#9D3AEA" d="M88.1919 1.12583C93.7279 0.720923 100.58 0.944835 106.164 1.06675C107.98 1.04923 110.935 0.940853 112.65 1.09767C113.006 10.0498 112.788 20.2841 112.787 29.3112L112.791 78.0798L112.794 121.667C112.8 130.102 113.022 139.832 112.615 148.166C110.978 148.108 109.073 147.995 107.458 147.998C103.561 148.187 92.7705 147.667 90.1126 148.236C87.1629 147.502 87.9659 144.671 88.1497 142.192C88.1235 140.389 88.0616 138.487 88.1339 136.692C81.519 143.201 76.9714 146.492 67.7994 149.359C66.1635 149.871 62.8308 150.564 61.588 151L49.7274 151C46.8548 150.256 43.9911 149.478 41.137 148.665C27.5326 144.571 16.0943 135.274 9.30824 122.795C2.3558 110.062 0.878089 93.6547 5.05426 79.7973C9.80952 64.0184 18.4831 54.2212 32.6578 46.5005C33.0619 46.4211 36.5781 44.8212 37.1755 44.5555C56.0445 38.4939 75.6598 41.9797 88.971 57.3395C87.5703 51.5526 87.9312 41.7556 87.8625 35.5145C87.7385 24.2455 87.6154 12.361 88.1919 1.12583ZM61.9277 128.333C79.4891 125.896 91.7087 109.631 89.1562 92.0896C86.6037 74.5487 70.2551 62.4388 52.7272 65.1056C35.3609 67.7478 23.3842 83.9091 25.9131 101.288C28.4421 118.667 44.5283 130.747 61.9277 128.333Z"/><path fill="#9D3AEA" d="M106.164 1.06675C107.98 1.04923 110.935 0.940853 112.65 1.09767C113.006 10.0498 112.788 20.2841 112.787 29.3112L112.791 78.0798L112.794 121.667C112.8 130.102 113.022 139.832 112.615 148.166C110.978 148.108 109.073 147.995 107.458 147.998C108.793 147.562 109.381 147.963 111.065 147.085C111.737 145.822 111.731 15.5774 111.247 2.15918C109.611 1.98827 107.498 1.9428 106.164 1.06675Z"/><path fill="#9D3AEA" d="M573.632 151C565.472 148.13 563.956 149.515 554.219 144.129C541.99 137.256 532.949 125.857 529.045 112.385C524.976 98.1605 526.677 80.4844 533.886 67.546C540.502 55.7515 551.498 47.0364 564.494 43.2871C575.388 40.2131 591.469 41.9029 601.021 47.8741C614.368 56.2179 619.805 66.2803 623.839 80.6519C624.524 85.3763 626.015 100.026 623.903 104.01C600.013 103.557 574.828 103.875 550.849 103.958C551.687 107.178 552.386 109.943 553.971 112.865C561.089 125.987 576.144 132.007 590.465 128.211C597.625 126.314 601.173 122.559 606.813 118.475C610.995 121.877 615.54 125.258 619.274 129.118C620.608 130.497 619.57 132.591 618.553 133.803C609.946 144.05 600.261 147.697 587.795 151L573.632 151ZM589.283 86.0675C591.897 86.1668 593.993 86.0886 596.612 85.9627C598.898 86.3297 600.178 86.1357 602.484 85.9117C599.139 74.074 593.301 65.0714 579.813 63.9937C563.796 62.714 554.891 71.3321 551.066 86.2493C561.88 85.3643 577.594 86.589 589.283 86.0675Z"/><path fill="#9D3AEA" d="M623.839 80.6519C624.524 85.3763 626.015 100.026 623.903 104.01C622.976 101.159 623.629 84.4063 623.839 80.6519Z"/><path fill="#9D3AEA" d="M689.547 151C685.369 149.849 680.708 148.928 676.679 147.482C634.815 132.454 627.795 70.39 667.24 47.9993C678.372 41.6621 691.58 40.0485 703.912 43.5191C715.743 46.7844 725.633 55.0369 731.653 65.6546C736.71 74.5739 737.794 82.9415 738.128 92.9673C738.22 95.7405 738.51 99.1363 737.761 101.816C737.61 102.359 737.407 103.121 736.896 103.42C734.888 104.594 673.862 103.904 665.378 104.006C670.605 123.137 685.61 132.58 705.249 128.106C712.492 126.456 715.244 122.265 720.766 118.678C724.623 121.63 731.256 126.513 734.496 129.829C731.32 138.162 722.552 143.252 714.965 146.89C709.338 149.589 705.606 149.453 701.576 151L689.547 151ZM716.57 85.6996C714.559 80.9308 714.277 78.0157 710.91 73.5285C704.374 64.8154 695.691 63.0636 685.265 64.373C684.074 64.7489 681.834 65.3831 680.762 65.8375C674.511 68.2769 670.626 72.9772 667.561 78.795C666.289 81.8432 665.915 83.0415 665.1 86.1827L684.71 86.0462C688.617 86.2844 694.171 86.1369 698.22 86.17C704.116 86.2182 710.796 86.4561 716.57 85.6996Z"/><path fill="#9D3AEA" d="M667.561 78.795C667.669 77.432 667.801 76.0255 669.164 73.6156C670.941 70.4724 675.907 65.6651 679.864 65.2985C679.864 65.2985 680.67 65.7822 680.762 65.8375C674.511 68.2769 670.626 72.9772 667.561 78.795Z"/></svg>